<?xml version="1.0" encoding="us-ascii" standalone="no"?><svg xmlns="http://www.w3.org/2000/svg" xmlns:xlink="http://www.w3.org/1999/xlink" contentStyleType="text/css" height="1105px" preserveAspectRatio="none" style="width:879px;height:1105px;background:#FFFFFF;" version="1.1" viewBox="0 0 879 1105" width="879px" zoomAndPan="magnify"><defs/><g><line style="stroke:#181818;stroke-width:0.5;stroke-dasharray:5.0,5.0;" x1="32" x2="32" y1="36.2969" y2="1070.5469"/><line style="stroke:#181818;stroke-width:0.5;stroke-dasharray:5.0,5.0;" x1="97" x2="97" y1="36.2969" y2="1070.5469"/><line style="stroke:#181818;stroke-width:0.5;stroke-dasharray:5.0,5.0;" x1="162" x2="162" y1="36.2969" y2="1070.5469"/><line style="stroke:#181818;stroke-width:0.5;stroke-dasharray:5.0,5.0;" x1="605.5" x2="605.5" y1="36.2969" y2="1070.5469"/><rect fill="#E2E2F0" height="30.2969" rx="2.5" ry="2.5" style="stroke:#181818;stroke-width:0.5;" width="55" x="5" y="5"/><text fill="#000000" font-family="sans-serif" font-size="14" lengthAdjust="spacing" textLength="41" x="12" y="24.9951">&#20107;&#21153; 1</text><rect fill="#E2E2F0" height="30.2969" rx="2.5" ry="2.5" style="stroke:#181818;stroke-width:0.5;" width="55" x="5" y="1069.5469"/><text fill="#000000" font-family="sans-serif" font-size="14" lengthAdjust="spacing" textLength="41" x="12" y="1089.542">&#20107;&#21153; 1</text><rect fill="#E2E2F0" height="30.2969" rx="2.5" ry="2.5" style="stroke:#181818;stroke-width:0.5;" width="55" x="70" y="5"/><text fill="#000000" font-family="sans-serif" font-size="14" lengthAdjust="spacing" textLength="41" x="77" y="24.9951">&#20107;&#21153; 2</text><rect fill="#E2E2F0" height="30.2969" rx="2.5" ry="2.5" style="stroke:#181818;stroke-width:0.5;" width="55" x="70" y="1069.5469"/><text fill="#000000" font-family="sans-serif" font-size="14" lengthAdjust="spacing" textLength="41" x="77" y="1089.542">&#20107;&#21153; 2</text><rect fill="#E2E2F0" height="30.2969" rx="2.5" ry="2.5" style="stroke:#181818;stroke-width:0.5;" width="55" x="135" y="5"/><text fill="#000000" font-family="sans-serif" font-size="14" lengthAdjust="spacing" textLength="41" x="142" y="24.9951">&#20107;&#21153; 3</text><rect fill="#E2E2F0" height="30.2969" rx="2.5" ry="2.5" style="stroke:#181818;stroke-width:0.5;" width="55" x="135" y="1069.5469"/><text fill="#000000" font-family="sans-serif" font-size="14" lengthAdjust="spacing" textLength="41" x="142" y="1089.542">&#20107;&#21153; 3</text><rect fill="#E2E2F0" height="30.2969" rx="2.5" ry="2.5" style="stroke:#181818;stroke-width:0.5;" width="178" x="516.5" y="5"/><text fill="#000000" font-family="sans-serif" font-size="14" lengthAdjust="spacing" textLength="164" x="523.5" y="24.9951">&#25968;&#25454;&#24211; slot_zeus_record</text><rect fill="#E2E2F0" height="30.2969" rx="2.5" ry="2.5" style="stroke:#181818;stroke-width:0.5;" width="178" x="516.5" y="1069.5469"/><text fill="#000000" font-family="sans-serif" font-size="14" lengthAdjust="spacing" textLength="164" x="523.5" y="1089.542">&#25968;&#25454;&#24211; slot_zeus_record</text><rect fill="#EEEEEE" height="3" style="stroke:#EEEEEE;stroke-width:1.0;" width="872" x="0" y="66.8633"/><line style="stroke:#000000;stroke-width:1.0;" x1="0" x2="872" y1="66.8633" y2="66.8633"/><line style="stroke:#000000;stroke-width:1.0;" x1="0" x2="872" y1="69.8633" y2="69.8633"/><rect fill="#EEEEEE" height="23.1328" style="stroke:#000000;stroke-width:2.0;" width="94" x="389" y="56.2969"/><text fill="#000000" font-family="sans-serif" font-size="13" font-weight="bold" lengthAdjust="spacing" textLength="75" x="395" y="72.3638">&#20107;&#21153; 1 &#24320;&#22987;</text><polygon fill="#181818" points="593.5,106.5625,603.5,110.5625,593.5,114.5625,597.5,110.5625" style="stroke:#181818;stroke-width:1.0;"/><line style="stroke:#181818;stroke-width:1.0;" x1="32.5" x2="599.5" y1="110.5625" y2="110.5625"/><text fill="#000000" font-family="sans-serif" font-size="13" lengthAdjust="spacing" textLength="419" x="39.5" y="105.4966">SET SESSION TRANSACTION ISOLATION LEVEL READ COMMITTED;</text><polygon fill="#181818" points="593.5,135.6953,603.5,139.6953,593.5,143.6953,597.5,139.6953" style="stroke:#181818;stroke-width:1.0;"/><line style="stroke:#181818;stroke-width:1.0;" x1="32.5" x2="599.5" y1="139.6953" y2="139.6953"/><text fill="#000000" font-family="sans-serif" font-size="13" lengthAdjust="spacing" textLength="40" x="39.5" y="134.6294">BEGIN</text><polygon fill="#181818" points="593.5,164.8281,603.5,168.8281,593.5,172.8281,597.5,168.8281" style="stroke:#181818;stroke-width:1.0;"/><line style="stroke:#181818;stroke-width:1.0;" x1="32.5" x2="599.5" y1="168.8281" y2="168.8281"/><text fill="#000000" font-family="sans-serif" font-size="13" lengthAdjust="spacing" textLength="254" x="39.5" y="163.7622">SELECT * FROM slot_zeus_record limit 1</text><path d="M610,181.8281 L610,221.8281 L761,221.8281 L761,191.8281 L751,181.8281 L610,181.8281 " fill="#FEFFDD" style="stroke:#181818;stroke-width:0.5;"/><path d="M751,181.8281 L751,191.8281 L761,191.8281 L751,181.8281 " fill="#FEFFDD" style="stroke:#181818;stroke-width:0.5;"/><text fill="#000000" font-family="sans-serif" font-size="13" lengthAdjust="spacing" textLength="130" x="616" y="198.895">&#35835;&#21462;&#25968;&#25454;&#65292;&#20107;&#21153;&#26410;&#25552;&#20132;</text><text fill="#000000" font-family="sans-serif" font-size="13" lengthAdjust="spacing" textLength="93" x="616" y="214.0278">&#21487;&#33021;&#25345;&#26377;MDL&#38145;</text><rect fill="#EEEEEE" height="3" style="stroke:#EEEEEE;stroke-width:1.0;" width="872" x="0" y="247.6602"/><line style="stroke:#000000;stroke-width:1.0;" x1="0" x2="872" y1="247.6602" y2="247.6602"/><line style="stroke:#000000;stroke-width:1.0;" x1="0" x2="872" y1="250.6602" y2="250.6602"/><rect fill="#EEEEEE" height="23.1328" style="stroke:#000000;stroke-width:2.0;" width="94" x="389" y="237.0938"/><text fill="#000000" font-family="sans-serif" font-size="13" font-weight="bold" lengthAdjust="spacing" textLength="75" x="395" y="253.1606">&#20107;&#21153; 2 &#24320;&#22987;</text><polygon fill="#181818" points="593.5,287.3594,603.5,291.3594,593.5,295.3594,597.5,291.3594" style="stroke:#181818;stroke-width:1.0;"/><line style="stroke:#181818;stroke-width:1.0;" x1="97.5" x2="599.5" y1="291.3594" y2="291.3594"/><text fill="#000000" font-family="sans-serif" font-size="13" lengthAdjust="spacing" textLength="419" x="104.5" y="286.2935">SET SESSION TRANSACTION ISOLATION LEVEL READ COMMITTED;</text><polygon fill="#181818" points="593.5,331.625,603.5,335.625,593.5,339.625,597.5,335.625" style="stroke:#181818;stroke-width:1.0;"/><line style="stroke:#181818;stroke-width:1.0;" x1="97.5" x2="599.5" y1="335.625" y2="335.625"/><text fill="#000000" font-family="sans-serif" font-size="13" lengthAdjust="spacing" textLength="264" x="104.5" y="315.4263">ALTER TABLE `game`.`slot_zeus_record`</text><text fill="#000000" font-family="sans-serif" font-size="13" lengthAdjust="spacing" textLength="224" x="108.5" y="330.5591">ADD INDEX `IDX_test`(`view_uid`);</text><path d="M610,348.625 L610,388.625 L815,388.625 L815,358.625 L805,348.625 L610,348.625 " fill="#FEFFDD" style="stroke:#181818;stroke-width:0.5;"/><path d="M805,348.625 L805,358.625 L815,358.625 L805,348.625 " fill="#FEFFDD" style="stroke:#181818;stroke-width:0.5;"/><text fill="#000000" font-family="sans-serif" font-size="13" lengthAdjust="spacing" textLength="184" x="616" y="365.6919">&#31561;&#24453;&#20107;&#21153;1&#37322;&#25918;&#20803;&#25968;&#25454;&#38145;&#65288;MDL)</text><text fill="#000000" font-family="sans-serif" font-size="13" lengthAdjust="spacing" textLength="148" x="616" y="380.8247">&#36825;&#37324;sql&#20250;&#34987;&#21345;&#20303;&#26080;&#27861;&#25552;&#20132;</text><rect fill="#EEEEEE" height="3" style="stroke:#EEEEEE;stroke-width:1.0;" width="872" x="0" y="414.457"/><line style="stroke:#000000;stroke-width:1.0;" x1="0" x2="872" y1="414.457" y2="414.457"/><line style="stroke:#000000;stroke-width:1.0;" x1="0" x2="872" y1="417.457" y2="417.457"/><rect fill="#EEEEEE" height="23.1328" style="stroke:#000000;stroke-width:2.0;" width="94" x="389" y="403.8906"/><text fill="#000000" font-family="sans-serif" font-size="13" font-weight="bold" lengthAdjust="spacing" textLength="75" x="395" y="419.9575">&#20107;&#21153; 3 &#24320;&#22987;</text><polygon fill="#181818" points="593.5,454.1563,603.5,458.1563,593.5,462.1563,597.5,458.1563" style="stroke:#181818;stroke-width:1.0;"/><line style="stroke:#181818;stroke-width:1.0;" x1="162.5" x2="599.5" y1="458.1563" y2="458.1563"/><text fill="#000000" font-family="sans-serif" font-size="13" lengthAdjust="spacing" textLength="419" x="169.5" y="453.0903">SET SESSION TRANSACTION ISOLATION LEVEL READ COMMITTED;</text><polygon fill="#181818" points="593.5,483.2891,603.5,487.2891,593.5,491.2891,597.5,487.2891" style="stroke:#181818;stroke-width:1.0;"/><line style="stroke:#181818;stroke-width:1.0;" x1="162.5" x2="599.5" y1="487.2891" y2="487.2891"/><text fill="#000000" font-family="sans-serif" font-size="13" lengthAdjust="spacing" textLength="40" x="169.5" y="482.2231">BEGIN</text><polygon fill="#181818" points="593.5,512.4219,603.5,516.4219,593.5,520.4219,597.5,516.4219" style="stroke:#181818;stroke-width:1.0;"/><line style="stroke:#181818;stroke-width:1.0;" x1="162.5" x2="599.5" y1="516.4219" y2="516.4219"/><text fill="#000000" font-family="sans-serif" font-size="13" lengthAdjust="spacing" textLength="254" x="169.5" y="511.356">SELECT * FROM slot_zeus_record limit 1</text><path d="M610,529.4219 L610,554.4219 L813,554.4219 L813,539.4219 L803,529.4219 L610,529.4219 " fill="#FEFFDD" style="stroke:#181818;stroke-width:0.5;"/><path d="M803,529.4219 L803,539.4219 L813,539.4219 L803,529.4219 " fill="#FEFFDD" style="stroke:#181818;stroke-width:0.5;"/><text fill="#000000" font-family="sans-serif" font-size="13" lengthAdjust="spacing" textLength="182" x="616" y="546.4888">&#35835;&#21462;&#25968;&#25454;&#65292;&#26080;&#27861;&#33719;&#21462;&#21040;&#38145;&#65292;&#21345;&#20303;</text><rect fill="#EEEEEE" height="3" style="stroke:#EEEEEE;stroke-width:1.0;" width="872" x="0" y="580.1211"/><line style="stroke:#000000;stroke-width:1.0;" x1="0" x2="872" y1="580.1211" y2="580.1211"/><line style="stroke:#000000;stroke-width:1.0;" x1="0" x2="872" y1="583.1211" y2="583.1211"/><rect fill="#EEEEEE" height="23.1328" style="stroke:#000000;stroke-width:2.0;" width="94" x="389" y="569.5547"/><text fill="#000000" font-family="sans-serif" font-size="13" font-weight="bold" lengthAdjust="spacing" textLength="75" x="395" y="585.6216">&#20107;&#21153; 1 &#25552;&#20132;</text><polygon fill="#181818" points="593.5,619.8203,603.5,623.8203,593.5,627.8203,597.5,623.8203" style="stroke:#181818;stroke-width:1.0;"/><line style="stroke:#181818;stroke-width:1.0;" x1="32.5" x2="599.5" y1="623.8203" y2="623.8203"/><text fill="#000000" font-family="sans-serif" font-size="13" lengthAdjust="spacing" textLength="51" x="39.5" y="618.7544">COMMIT</text><path d="M610,636.8203 L610,661.8203 L761,661.8203 L761,646.8203 L751,636.8203 L610,636.8203 " fill="#FEFFDD" style="stroke:#181818;stroke-width:0.5;"/><path d="M751,636.8203 L751,646.8203 L761,646.8203 L751,636.8203 " fill="#FEFFDD" style="stroke:#181818;stroke-width:0.5;"/><text fill="#000000" font-family="sans-serif" font-size="13" lengthAdjust="spacing" textLength="130" x="616" y="653.8872">&#37322;&#25918;&#20849;&#20139;&#38145;&#21644;&#20107;&#21153;&#36164;&#28304;</text><rect fill="#EEEEEE" height="3" style="stroke:#EEEEEE;stroke-width:1.0;" width="872" x="0" y="687.5195"/><line style="stroke:#000000;stroke-width:1.0;" x1="0" x2="872" y1="687.5195" y2="687.5195"/><line style="stroke:#000000;stroke-width:1.0;" x1="0" x2="872" y1="690.5195" y2="690.5195"/><rect fill="#EEEEEE" height="23.1328" style="stroke:#000000;stroke-width:2.0;" width="94" x="389" y="676.9531"/><text fill="#000000" font-family="sans-serif" font-size="13" font-weight="bold" lengthAdjust="spacing" textLength="75" x="395" y="693.02">&#20107;&#21153; 2 &#32487;&#32493;</text><path d="M610,715.0859 L610,755.0859 L867,755.0859 L867,725.0859 L857,715.0859 L610,715.0859 " fill="#FEFFDD" style="stroke:#181818;stroke-width:0.5;"/><path d="M857,715.0859 L857,725.0859 L867,725.0859 L857,715.0859 " fill="#FEFFDD" style="stroke:#181818;stroke-width:0.5;"/><text fill="#000000" font-family="sans-serif" font-size="13" lengthAdjust="spacing" textLength="86" x="616" y="732.1528">&#20107;&#21153;3&#36824;&#26410;&#25552;&#20132;</text><text fill="#000000" font-family="sans-serif" font-size="13" lengthAdjust="spacing" textLength="236" x="616" y="747.2856">&#26080;&#27861;&#33719;&#21462;&#21040;&#20803;&#25968;&#25454;&#38145;&#65288;MDL&#65289;&#65292;&#32487;&#32493;&#21345;&#20303;</text><path d="M610,765.3516 L610,790.3516 L691,790.3516 L691,775.3516 L681,765.3516 L610,765.3516 " fill="#FEFFDD" style="stroke:#181818;stroke-width:0.5;"/><path d="M681,765.3516 L681,775.3516 L691,775.3516 L681,765.3516 " fill="#FEFFDD" style="stroke:#181818;stroke-width:0.5;"/><text fill="#000000" font-family="sans-serif" font-size="13" lengthAdjust="spacing" textLength="60" x="616" y="782.4185">&#20107;&#21153;2&#21345;&#20303;</text><rect fill="#EEEEEE" height="3" style="stroke:#EEEEEE;stroke-width:1.0;" width="872" x="0" y="816.0508"/><line style="stroke:#000000;stroke-width:1.0;" x1="0" x2="872" y1="816.0508" y2="816.0508"/><line style="stroke:#000000;stroke-width:1.0;" x1="0" x2="872" y1="819.0508" y2="819.0508"/><rect fill="#EEEEEE" height="23.1328" style="stroke:#000000;stroke-width:2.0;" width="94" x="389" y="805.4844"/><text fill="#000000" font-family="sans-serif" font-size="13" font-weight="bold" lengthAdjust="spacing" textLength="75" x="395" y="821.5513">&#20107;&#21153; 3 &#25552;&#20132;</text><polygon fill="#181818" points="593.5,855.75,603.5,859.75,593.5,863.75,597.5,859.75" style="stroke:#181818;stroke-width:1.0;"/><line style="stroke:#181818;stroke-width:1.0;" x1="32.5" x2="599.5" y1="859.75" y2="859.75"/><text fill="#000000" font-family="sans-serif" font-size="13" lengthAdjust="spacing" textLength="51" x="39.5" y="854.6841">COMMIT</text><path d="M610,872.75 L610,897.75 L761,897.75 L761,882.75 L751,872.75 L610,872.75 " fill="#FEFFDD" style="stroke:#181818;stroke-width:0.5;"/><path d="M751,872.75 L751,882.75 L761,882.75 L751,872.75 " fill="#FEFFDD" style="stroke:#181818;stroke-width:0.5;"/><text fill="#000000" font-family="sans-serif" font-size="13" lengthAdjust="spacing" textLength="130" x="616" y="889.8169">&#37322;&#25918;&#20849;&#20139;&#38145;&#21644;&#20107;&#21153;&#36164;&#28304;</text><rect fill="#EEEEEE" height="3" style="stroke:#EEEEEE;stroke-width:1.0;" width="872" x="0" y="923.4492"/><line style="stroke:#000000;stroke-width:1.0;" x1="0" x2="872" y1="923.4492" y2="923.4492"/><line style="stroke:#000000;stroke-width:1.0;" x1="0" x2="872" y1="926.4492" y2="926.4492"/><rect fill="#EEEEEE" height="23.1328" style="stroke:#000000;stroke-width:2.0;" width="94" x="389" y="912.8828"/><text fill="#000000" font-family="sans-serif" font-size="13" font-weight="bold" lengthAdjust="spacing" textLength="75" x="395" y="928.9497">&#20107;&#21153; 2 &#32487;&#32493;</text><path d="M610,951.0156 L610,991.0156 L849,991.0156 L849,961.0156 L839,951.0156 L610,951.0156 " fill="#FEFFDD" style="stroke:#181818;stroke-width:0.5;"/><path d="M839,951.0156 L839,961.0156 L849,961.0156 L839,951.0156 " fill="#FEFFDD" style="stroke:#181818;stroke-width:0.5;"/><text fill="#000000" font-family="sans-serif" font-size="13" lengthAdjust="spacing" textLength="86" x="616" y="968.0825">&#20107;&#21153;3&#20107;&#21153;&#25552;&#20132;</text><text fill="#000000" font-family="sans-serif" font-size="13" lengthAdjust="spacing" textLength="218" x="616" y="983.2153">&#37322;&#25918;&#20849;&#20139;&#38145;&#21644;&#20107;&#21153;&#36164;&#28304;&#65292;&#21487;&#20197;commit</text><polygon fill="#181818" points="593.5,1013.4141,603.5,1017.4141,593.5,1021.4141,597.5,1017.4141" style="stroke:#181818;stroke-width:1.0;"/><line style="stroke:#181818;stroke-width:1.0;" x1="97.5" x2="599.5" y1="1017.4141" y2="1017.4141"/><text fill="#000000" font-family="sans-serif" font-size="13" lengthAdjust="spacing" textLength="51" x="104.5" y="1012.3481">COMMIT</text><path d="M610,1030.4141 L610,1055.4141 L691,1055.4141 L691,1040.4141 L681,1030.4141 L610,1030.4141 " fill="#FEFFDD" style="stroke:#181818;stroke-width:0.5;"/><path d="M681,1030.4141 L681,1040.4141 L691,1040.4141 L681,1030.4141 " fill="#FEFFDD" style="stroke:#181818;stroke-width:0.5;"/><text fill="#000000" font-family="sans-serif" font-size="13" lengthAdjust="spacing" textLength="60" x="616" y="1047.481">&#20107;&#21153;2&#23436;&#25104;</text></g></svg>